<svg xmlns="http://www.w3.org/2000/svg" viewBox="0 0 24 24"><path fill="#FFA116" d="M13.483 0a1.374 1.374 0 0 0-.961.438L7.116 6.226l-3.854 4.126a5.266 5.266 0 0 0-1.209 2.104 5.35 5.35 0 0 0-.125 3.328 5.207 5.207 0 0 0 1.258 2.051 5.342 5.342 0 0 0 1.956 1.328 5.32 5.32 0 0 0 4.195.045 5.297 5.297 0 0 0 1.921-1.373 5.305 5.305 0 0 0 1.218-2.072 5.334 5.334 0 0 0 .142-3.329 5.258 5.258 0 0 0-1.229-2.083l-3.385-3.626 1.925-2.062 4.29-4.595a1.272 1.272 0 0 0 .399-.955 1.31 1.31 0 0 0-.414-.949L14.437.452A1.365 1.365 0 0 0 13.483 0zM7.348 9.948h0L11.517 5.5l1.924 2.06-4.17 4.469-1.923-2.081zm6.98 4.271A3.481 3.481 0 0 1 13.567 16a3.468 3.468 0 0 1-2.457 1.026 3.456 3.456 0 0 1-2.446-1.015 3.473 3.473 0 0 1-1.02-2.452 3.466 3.466 0 0 1 .998-2.463l3.384-3.626 1.924 2.061-3.384 3.625h0a1.597 1.597 0 0 0-.472 1.139 1.6 1.6 0 0 0 1.598 1.6 1.611 1.611 0 0 0 1.14-.473 1.6 1.6 0 0 0 .47-1.138 1.596 1.596 0 0 0-.47-1.139l1.925-2.062a3.457 3.457 0 0 1 .572 3.637z"/></svg>
